{"title":"Happy New Year (2014) - 800 MB - DVDSCR-Rip (New Source) - Hindi","uid":11290133,"size":845291952,"categoryP":"video","categoryS":"movies","magnet":"?xt=urn:btih:73f2399143977d656b6c3d90f89e4a701298846a&amp;dn=Happy+New+Year+%282014%29+-+800+MB+-+DVDSCR-Rip+%28New+Source%29+-+Hindi&amp;tr=udp%3A%2F%2Ftracker.openbittorrent.com%3A80&amp;tr=udp%3A%2F%2Fopen.demonii.com%3A1337&amp;tr=udp%3A%2F%2Ftracker.coppersurfer.tk%3A6969&amp;tr=udp%3A%2F%2Fexodus.desync.com%3A6969","seeders":13,"leechers":2,"uploader":"inovai","files":3,"time":1414317367,"description":"Happy New Year (2014) - 800 MB - DVDSCR-Rip (New Source) - Hindi - x264 - MP3 - Mafiaking - Team Telly TNT ExClusive\n\nCover:\n &lt;a href=&quot;\nhttp://forum.primetimeshow.in/viewtopic.php?f=7&amp;t=789&quot; rel=&quot;nofollow&quot; target=&quot;_NEW&quot;&gt;\nhttp://forum.primetimeshow.in/viewtopic.php?f=7&amp;t=789&lt;/a&gt;\n\nRatings: 7.1/10\n\nGENRE: Action | Comedy | Crime\n\nScreenshots:\n &lt;a href=&quot;\nhttp://m.primetimeshow.in/share-FB3A_544CB67C.html&quot; rel=&quot;nofollow&quot; target=&quot;_NEW&quot;&gt;\nhttp://m.primetimeshow.in/share-FB3A_544CB67C.html&lt;/a&gt;\n &lt;a href=&quot;\nhttp://m.primetimeshow.in/share-BB79_544CB67C.html&quot; rel=&quot;nofollow&quot; target=&quot;_NEW&quot;&gt;\nhttp://m.primetimeshow.in/share-BB79_544CB67C.html&lt;/a&gt;\n &lt;a href=&quot;\nhttp://m.primetimeshow.in/share-274C_544CB67C.html&quot; rel=&quot;nofollow&quot; target=&quot;_NEW&quot;&gt;\nhttp://m.primetimeshow.in/share-274C_544CB67C.html&lt;/a&gt;\n &lt;a href=&quot;\nhttp://m.primetimeshow.in/share-A29A_544CB67C.html&quot; rel=&quot;nofollow&quot; target=&quot;_NEW&quot;&gt;\nhttp://m.primetimeshow.in/share-A29A_544CB67C.html&lt;/a&gt;\n &lt;a href=&quot;\nhttp://m.primetimeshow.in/share-5984_544CB67C.html&quot; rel=&quot;nofollow&quot; target=&quot;_NEW&quot;&gt;\nhttp://m.primetimeshow.in/share-5984_544CB67C.html&lt;/a&gt;\n\n\nGeneral\nUnique ID : 251411475906230980693450877006380576435 (0xBD2416C77620E6B3B7D7287A6EE8AEB3)\nComplete name : Happy New Year (2014) - 800 MB - DVDSCR-Rip (New Source) - Hindi - x264 - MP3 - Mafiaking - Team Telly TNT.mkv\nFormat : Matroska\nFormat version : Version 4 / Version 2\nFile size : 803 MiB\nDuration : 3h 2mn\nOverall bit rate : 616 Kbps\nMovie name : Happy New Year (2014) - 800 MB - DVDSCR-Rip (New Source) - Hindi - x264 - MP3 - Mafiaking - Team Telly TNT\nEncoded date : UTC 2014-10-25 18:16:00\nWriting application : mkvmerge v7.0.0 ('Where We Going') 64bit built on Jun 9 2014 15:16:27\nWriting library : libebml v1.3.0 + libmatroska v1.4.1\n\n\nVideo\nID : 1\nFormat : AVC\nFormat/Info : Advanced Video Codec\nFormat profile : &lt;a class=&quot;__cf_email__&quot; href=&quot;/cdn-cgi/l/email-protection&quot; data-cfemail=&quot;5911303e3119156d7768&quot;&gt;[email&amp;#160;protected]&lt;/a&gt;&lt;script cf-hash='f9e31' type=&quot;text/javascript&quot;&gt;\n/* &lt;![CDATA[ */!function(){try{var t=&quot;currentScript&quot;in document?document.currentScript:function(){for(var t=document.getElementsByTagName(&quot;script&quot;),e=t.length;e--;)if(t[e].getAttribute(&quot;cf-hash&quot;))return t[e]}();if(t&amp;&amp;t.previousSibling){var e,r,n,i,c=t.previousSibling,a=c.getAttribute(&quot;data-cfemail&quot;);if(a){for(e=&quot;&quot;,r=parseInt(a.substr(0,2),16),n=2;a.length-n;n+=2)i=parseInt(a.substr(n,2),16)^r,e+=String.fromCharCode(i);e=document.createTextNode(e),c.parentNode.replaceChild(e,c)}}}catch(u){}}();/* ]]&gt; */&lt;/script&gt;\nFormat settings, CABAC : Yes\nFormat settings, ReFrames : 4 frames\nCodec ID : V_MPEG4/ISO/AVC\nDuration : 3h 2mn\nBit rate : 550 Kbps\nWidth : 640 pixels\nHeight : 272 pixels\nDisplay aspect ratio : 2.35:1\nFrame rate mode : Constant\nFrame rate : 29.970 fps\nColor space : YUV\nChroma subsampling : 4:2:0\nBit depth : 8 bits\nScan type : Progressive\nBits/(Pixel*Frame) : 0.105\nStream size : 704 MiB (88%)\nTitle : Mafiaking\nWriting library : x264 core 142 r2431 ac76440\nLanguage : Hindi\nDefault : Yes\nForced : No\n\n\nAudio\nID : 2\nFormat : MPEG Audio\nFormat version : Version 2\nFormat profile : Layer 3\nMode : Joint stereo\nMode extension : MS Stereo\nCodec ID : A_MPEG/L3\nCodec ID/Hint : MP3\nDuration : 3h 2mn\nBit rate mode : Constant\nBit rate : 64.0 Kbps\nChannel(s) : 2 channels\nSampling rate : 24.0 KHz\nCompression mode : Lossy\nStream size : 83.4 MiB (10%)\nTitle : Mafiaking\nWriting library : LAME3.99r\nLanguage : Hindi\nDefault : Yes\nForced : No\n\nSAMPLE WITH IN TORRENT\n\nSource Own @ Team TellyTNT!!\n\nThanks to mafiaking!1\n\nSeed n Enjoy!!","torrent":{"xt":"urn:btih:73f2399143977d656b6c3d90f89e4a701298846a","amp;dn":"Happy+New+Year+%282014%29+-+800+MB+-+DVDSCR-Rip+%28New+Source%29+-+Hindi","amp;tr":["udp%3A%2F%2Ftracker.openbittorrent.com%3A80","udp%3A%2F%2Fopen.demonii.com%3A1337","udp%3A%2F%2Ftracker.coppersurfer.tk%3A6969","udp%3A%2F%2Fexodus.desync.com%3A6969"],"infoHash":"73f2399143977d656b6c3d90f89e4a701298846a","infoHashBuffer":{"type":"Buffer","data":[115,242,57,145,67,151,125,101,107,108,61,144,248,158,74,112,18,152,132,106]},"announce":[],"urlList":[]}}